
        <svg xmlns="http://www.w3.org/2000/svg" xmlns:xlink="http://www.w3.org/1999/xlink" version="1.1" width="3189.0619650358103" height="529.3735021002689" viewBox="0 0 3189.0619650358103 529.3735021002689">
			
			<g transform="scale(9.453098251790514) translate(10, 10)">
				<defs id="SvgjsDefs4050"><linearGradient id="SvgjsLinearGradient4057"><stop id="SvgjsStop4058" stop-color="#147d6c" offset="0"/><stop id="SvgjsStop4059" stop-color="#1effff" offset="1"/></linearGradient><linearGradient id="SvgjsLinearGradient4060"><stop id="SvgjsStop4061" stop-color="#147d6c" offset="0"/><stop id="SvgjsStop4062" stop-color="#1effff" offset="1"/></linearGradient><linearGradient id="SvgjsLinearGradient4063"><stop id="SvgjsStop4064" stop-color="#147d6c" offset="0"/><stop id="SvgjsStop4065" stop-color="#1effff" offset="1"/></linearGradient></defs><g id="SvgjsG4051" featureKey="nameLeftFeature-0" transform="matrix(1.286220908164978,0,0,1.286220908164978,-3.0869320897608485,-15.448836679027977)" fill="#000"><path d="M25.32 12.120000000000001 c1.08 0.32 1.8 1.32 1.8 2.44 l0 25.44 l-5.12 0 l0 -17 l-5.12 7.68 c-0.44 0.72 -1.24 1.16 -2.12 1.16 c-0.84 0 -1.64 -0.44 -2.12 -1.16 l-5.12 -7.68 l0 17 l-5.12 0 l0 -25.44 c0 -1.12 0.72 -2.12 1.8 -2.44 s2.28 0.08 2.88 1 l7.68 11.52 l7.68 -11.52 c0.64 -0.92 1.8 -1.32 2.88 -1 z"/></g><g id="SvgjsG4052" featureKey="inlineSymbolFeature-0" transform="matrix(0.44999998807907104,0,0,0.44999998807907104,32.5,-4.5)" fill="#000"><path xmlns="http://www.w3.org/2000/svg" d="M50,10L10,90h80L50,10z M50,24.909L72.546,70H42.36l3.333-6.667h16.064L50,39.814L31.575,76.667h44.304l3.333,6.666H20.788  L50,24.909z"/></g><g id="SvgjsG4053" featureKey="nameRightFeature-0" transform="matrix(1.2857141494750977,0,0,1.2857141494750977,74.91428886724957,-15.428567925278262)" fill="#000"><path d="M2.4 12 l14 0 c0.68 0 1.32 0.28 1.8 0.76 l2.48 2.44 c0.48 0.48 0.72 1.12 0.72 1.8 l0 8.2 c0 0.68 -0.24 1.32 -0.72 1.8 l-2.32 2.28 l3.04 10.72 l-5.32 0 l-2.6 -9.08 l-0.96 -0.72 l-5 0 l0 9.8 l-5.12 0 l0 -28 z M7.52 17.12 l0 7.96 l7.84 0 l0.92 -0.96 l0 -6.04 l-0.92 -0.96 l-7.84 0 z M48.658 12 l-8.4 26.24 c-0.36 1.04 -1.36 1.76 -2.44 1.76 c-1.12 0 -2.12 -0.72 -2.44 -1.76 l-8.44 -26.24 l5.36 0 l5.52 17.08 l5.48 -17.08 l5.36 0 z M70.756 17.12 l-11.44 0 l0 6.32 l11.44 0 l0 5.12 l-11.44 0 l0 6.32 l11.44 0 l0 5.12 l-16.56 0 l0 -28 l16.56 0 l0 5.12 z M81.414 34.88 l11.44 0 l0 5.12 l-16.56 0 l0 -28 l5.12 0 l0 22.88 z M103.512 34.88 l11.44 0 l0 5.12 l-16.56 0 l0 -28 l5.12 0 l0 22.88 z M126.05 12 l7.88 0 c0.68 0 1.36 0.28 1.84 0.76 l3 3 c0.48 0.48 0.72 1.12 0.72 1.8 l0 16.88 c0 0.68 -0.24 1.32 -0.72 1.8 l-3 3 c-0.48 0.48 -1.16 0.76 -1.84 0.76 l-7.88 0 c-0.68 0 -1.32 -0.28 -1.8 -0.76 l-3 -3 c-0.48 -0.48 -0.76 -1.12 -0.76 -1.8 l0 -16.88 c0 -0.68 0.28 -1.32 0.76 -1.8 l3 -3 c0.48 -0.48 1.12 -0.76 1.8 -0.76 z M127.13 17.12 l-1.52 1.48 l0 14.76 l1.52 1.52 l5.76 0 l1.48 -1.52 l0 -14.76 l-1.48 -1.48 l-5.76 0 z M164.02800000000002 12 l0 23 c0 0.68 -0.24 1.32 -0.72 1.8 l-2.48 2.44 c-0.48 0.48 -1.12 0.76 -1.8 0.76 l-9 0 c-0.68 0 -1.32 -0.28 -1.8 -0.76 l-2.44 -2.44 c-0.48 -0.48 -0.76 -1.12 -0.76 -1.8 l0 -23 l5.12 0 l0 21.92 l0.96 0.96 l6.88 0 l0.92 -0.96 l0 -21.92 l5.12 0 z M174.56600000000003 12 l9 0 c0.68 0 1.32 0.28 1.8 0.76 l2.48 2.44 c0.48 0.48 0.72 1.12 0.72 1.8 l0 5.04 l-5.12 0 l0 -3.96 l-0.92 -0.96 l-6.88 0 l-0.96 0.96 l0 3.44 l0.8 1 l9.24 2.16 c0.56 0.16 1.04 0.48 1.4 0.92 l1.88 2.4 c0.36 0.44 0.56 1 0.56 1.56 l0 5.44 c0 0.68 -0.24 1.32 -0.72 1.8 l-2.48 2.44 c-0.48 0.48 -1.12 0.76 -1.8 0.76 l-9 0 c-0.68 0 -1.32 -0.28 -1.8 -0.76 l-2.44 -2.44 c-0.48 -0.48 -0.76 -1.12 -0.76 -1.8 l0 -5.04 l5.12 0 l0 3.96 l0.96 0.96 l6.88 0 l0.92 -0.96 l0 -3.44 l-0.76 -1 l-9.24 -2.16 c-0.56 -0.16 -1.08 -0.48 -1.44 -0.92 l-1.88 -2.4 c-0.36 -0.44 -0.56 -1 -0.56 -1.56 l0 -5.44 c0 -0.68 0.28 -1.32 0.76 -1.8 l2.44 -2.44 c0.48 -0.48 1.12 -0.76 1.8 -0.76 z"/></g>
			</g>
		</svg>
	